<svg width="15" height="14" viewBox="0 0 15 14" fill="none" xmlns="http://www.w3.org/2000/svg">
<path d="M2.23553 13.6781C1.39285 13.6781 0.709717 12.995 0.709717 12.1523V1.75165C0.709717 0.908962 1.39285 0.22583 2.23553 0.22583C3.07822 0.22583 3.76135 0.908962 3.76135 1.75165V12.1523C3.76135 12.995 3.07822 13.6781 2.23553 13.6781ZM5.44203 9.32818C4.91464 7.90239 4.89084 6.33909 5.37459 4.89791L6.61586 1.19995C6.81121 0.617973 7.35649 0.22583 7.97038 0.22583C8.94517 0.22583 9.63375 1.18046 9.32617 2.10545L8.08816 5.82849C7.80896 6.66812 7.82143 7.57742 8.12357 8.40907L9.35234 11.7914C9.68555 12.7086 9.00626 13.6781 8.03041 13.6781C7.44182 13.6781 6.91549 13.3116 6.7113 12.7596L5.44203 9.32818Z" fill="#282828"/>
<path d="M11.0117 12.3329C11.0117 11.7564 11.293 11.3272 11.8558 11.0453C12.101 10.93 12.3608 10.8724 12.6349 10.8724C13.2842 10.8724 13.7603 11.1222 14.0633 11.6219C14.1932 11.8396 14.2581 12.0767 14.2581 12.3329C14.2581 12.9222 13.9695 13.345 13.3924 13.6013C13.1471 13.7166 12.8946 13.7742 12.6349 13.7742C11.9712 13.7742 11.495 13.518 11.2065 13.0055C11.0766 12.7877 11.0117 12.5635 11.0117 12.3329Z" fill="#282828"/>
</svg>
